<?xml version="1.0" encoding="UTF-8"?>
<svg version="1.1" xmlns="http://www.w3.org/2000/svg" width="500" height="500">
<path d="M0 0 C165 0 330 0 500 0 C500 165 500 330 500 500 C335 500 170 500 0 500 C0 335 0 170 0 0 Z " fill="#FEFEFE" transform="translate(0,0)"/>
<path d="M0 0 C0.61875 0.474375 1.2375 0.94875 1.875 1.4375 C4.02233927 2.14264846 4.02233927 2.14264846 5.875 2.4375 C5.875 3.0975 5.875 3.7575 5.875 4.4375 C6.65875 4.64375 7.4425 4.85 8.25 5.0625 C13.179437 6.93228645 17.40981818 9.65989425 21.875 12.4375 C23.62255238 13.50402094 25.37249593 14.56663534 27.125 15.625 C27.89328125 16.09292969 28.6615625 16.56085938 29.453125 17.04296875 C32.20741931 18.62890918 35.02807288 20.02447749 37.875 21.4375 C40.50852375 22.81743639 43.12938384 24.22073572 45.75 25.625 C46.43835938 25.99302734 47.12671875 26.36105469 47.8359375 26.74023438 C49.51600867 27.63860577 51.19555859 28.53795186 52.875 29.4375 C52.875 30.0975 52.875 30.7575 52.875 31.4375 C53.7 31.664375 54.525 31.89125 55.375 32.125 C58.9262408 33.4567153 61.71696901 35.11882072 64.84765625 37.21875 C67.11008299 38.57882156 69.41856579 39.48130752 71.875 40.4375 C72.10678113 52.32876559 72.28442179 64.21949338 72.39312172 76.11255836 C72.44529595 81.63525843 72.51604599 87.1564125 72.62939453 92.67822266 C72.73811813 98.00813322 72.79785444 103.336558 72.82377243 108.66749191 C72.84223911 110.70026423 72.87830378 112.73295582 72.93230057 114.76509476 C73.33848159 130.68589586 73.33848159 130.68589586 69.72283936 135.0133667 C66.42172346 137.06945047 63.42101089 138.14836478 59.6131897 138.86050415 C59.0395871 139.05091278 58.4659845 139.24132141 57.875 139.4375 C57.545 140.4275 57.215 141.4175 56.875 142.4375 C54.49396795 143.788249 52.16332151 144.97520591 49.6875 146.125 C42.77842082 149.43810741 36.1616836 153.06497668 29.5703125 156.96875 C26.875 158.4375 26.875 158.4375 24.875 158.4375 C24.545 159.4275 24.215 160.4175 23.875 161.4375 C21.87890625 162.60546875 21.87890625 162.60546875 19.4375 163.625 C18.63441406 163.96917969 17.83132813 164.31335938 17.00390625 164.66796875 C14.875 165.4375 14.875 165.4375 12.875 165.4375 C12.875 166.0975 12.875 166.7575 12.875 167.4375 C12.19308594 167.68113281 11.51117188 167.92476562 10.80859375 168.17578125 C6.67407579 169.95400935 2.91842786 172.35660524 -0.86523438 174.77929688 C-3.73286536 176.50614351 -5.73985127 177.43901039 -9.11328125 177.42578125 C-12.8576029 176.19709983 -16.01549045 174.47313503 -19.375 172.4375 C-20.60927132 171.70815785 -21.84364186 170.97898358 -23.078125 170.25 C-24.08359375 169.651875 -25.0890625 169.05375 -26.125 168.4375 C-26.785 168.1075 -27.445 167.7775 -28.125 167.4375 C-28.125 166.7775 -28.125 166.1175 -28.125 165.4375 C-28.76308594 165.25574219 -29.40117187 165.07398438 -30.05859375 164.88671875 C-30.88488281 164.63535156 -31.71117187 164.38398438 -32.5625 164.125 C-33.38621094 163.88136719 -34.20992187 163.63773438 -35.05859375 163.38671875 C-35.74050781 163.07347656 -36.42242187 162.76023437 -37.125 162.4375 C-37.455 161.4475 -37.785 160.4575 -38.125 159.4375 C-40.10921259 158.72521856 -42.11467123 158.07234067 -44.125 157.4375 C-51.12244148 154.35559437 -57.55160204 150.39835423 -64.0234375 146.3515625 C-67.2702853 144.34784031 -70.56972861 142.4903753 -73.91796875 140.6640625 C-85.12898406 134.43351594 -85.12898406 134.43351594 -87.125 132.4375 C-87.24685252 129.5928972 -87.30364115 126.77215716 -87.31787109 123.92626953 C-87.32604858 123.03361389 -87.33422607 122.14095825 -87.34265137 121.22125244 C-87.36755398 118.25427941 -87.38403257 115.28735432 -87.3984375 112.3203125 C-87.40376118 111.30997829 -87.40908485 110.29964409 -87.41456985 109.2586937 C-87.44132091 103.91254178 -87.46069069 98.5664134 -87.47509766 93.22021484 C-87.49176246 87.6858749 -87.5365501 82.15212852 -87.5874691 76.61801338 C-87.62105172 72.37331422 -87.63266517 68.12875755 -87.63832474 63.88393784 C-87.64506072 61.84329561 -87.66034318 59.80266351 -87.68421555 57.76214981 C-87.71568161 54.91010782 -87.71593213 52.05968805 -87.70849609 49.20751953 C-87.72490143 48.35960846 -87.74130676 47.51169739 -87.75820923 46.63809204 C-87.73300171 44.28421021 -87.73300171 44.28421021 -87.125 40.4375 C-83.91564895 37.56269284 -82.4830976 37.4375 -78.125 37.4375 C-78.125 36.7775 -78.125 36.1175 -78.125 35.4375 C-73.94646438 33.08211949 -69.75426975 30.75867975 -65.50390625 28.53515625 C-59.17181425 25.21742651 -53.03811895 21.87417178 -47.15234375 17.796875 C-44.38338385 15.94023137 -41.489923 14.36811354 -38.5625 12.77734375 C-35.7850159 11.25061771 -33.04863034 9.6621387 -30.3125 8.0625 C-29.30574219 7.4746875 -28.29898438 6.886875 -27.26171875 6.28125 C-25.11364558 5.01862168 -22.97063764 3.74734741 -20.83203125 2.46875 C-19.77371094 1.8396875 -18.71539062 1.210625 -17.625 0.5625 C-16.18640625 -0.29988281 -16.18640625 -0.29988281 -14.71875 -1.1796875 C-9.15830064 -4.14414394 -5.22708118 -3.84344205 0 0 Z " fill="#FBFCFE" transform="translate(258.125,159.5625)"/>
<path d="M0 0 C0.61875 0.474375 1.2375 0.94875 1.875 1.4375 C4.02233927 2.14264846 4.02233927 2.14264846 5.875 2.4375 C5.875 3.0975 5.875 3.7575 5.875 4.4375 C6.65875 4.64375 7.4425 4.85 8.25 5.0625 C13.179437 6.93228645 17.40981818 9.65989425 21.875 12.4375 C23.62255238 13.50402094 25.37249593 14.56663534 27.125 15.625 C27.89328125 16.09292969 28.6615625 16.56085938 29.453125 17.04296875 C32.20741931 18.62890918 35.02807288 20.02447749 37.875 21.4375 C40.50852375 22.81743639 43.12938384 24.22073572 45.75 25.625 C46.43835938 25.99302734 47.12671875 26.36105469 47.8359375 26.74023438 C49.51600867 27.63860577 51.19555859 28.53795186 52.875 29.4375 C52.875 30.0975 52.875 30.7575 52.875 31.4375 C53.7 31.664375 54.525 31.89125 55.375 32.125 C58.9262408 33.4567153 61.71696901 35.11882072 64.84765625 37.21875 C67.11008299 38.57882156 69.41856579 39.48130752 71.875 40.4375 C72.10678113 52.32876559 72.28442179 64.21949338 72.39312172 76.11255836 C72.44529595 81.63525843 72.51604599 87.1564125 72.62939453 92.67822266 C72.73811813 98.00813322 72.79785444 103.336558 72.82377243 108.66749191 C72.84223911 110.70026423 72.87830378 112.73295582 72.93230057 114.76509476 C73.33848159 130.68589586 73.33848159 130.68589586 69.72283936 135.0133667 C66.42172346 137.06945047 63.42101089 138.14836478 59.6131897 138.86050415 C59.0395871 139.05091278 58.4659845 139.24132141 57.875 139.4375 C57.545 140.4275 57.215 141.4175 56.875 142.4375 C54.49396795 143.788249 52.16332151 144.97520591 49.6875 146.125 C42.77842082 149.43810741 36.1616836 153.06497668 29.5703125 156.96875 C26.875 158.4375 26.875 158.4375 24.875 158.4375 C24.545 159.4275 24.215 160.4175 23.875 161.4375 C21.87890625 162.60546875 21.87890625 162.60546875 19.4375 163.625 C18.63441406 163.96917969 17.83132813 164.31335938 17.00390625 164.66796875 C14.875 165.4375 14.875 165.4375 12.875 165.4375 C12.875 166.0975 12.875 166.7575 12.875 167.4375 C12.19308594 167.68113281 11.51117188 167.92476562 10.80859375 168.17578125 C6.67407579 169.95400935 2.91842786 172.35660524 -0.86523438 174.77929688 C-3.73286536 176.50614351 -5.73985127 177.43901039 -9.11328125 177.42578125 C-12.8576029 176.19709983 -16.01549045 174.47313503 -19.375 172.4375 C-20.60927132 171.70815785 -21.84364186 170.97898358 -23.078125 170.25 C-24.08359375 169.651875 -25.0890625 169.05375 -26.125 168.4375 C-26.785 168.1075 -27.445 167.7775 -28.125 167.4375 C-28.125 166.7775 -28.125 166.1175 -28.125 165.4375 C-28.76308594 165.25574219 -29.40117187 165.07398438 -30.05859375 164.88671875 C-30.88488281 164.63535156 -31.71117187 164.38398438 -32.5625 164.125 C-33.38621094 163.88136719 -34.20992187 163.63773438 -35.05859375 163.38671875 C-35.74050781 163.07347656 -36.42242187 162.76023437 -37.125 162.4375 C-37.455 161.4475 -37.785 160.4575 -38.125 159.4375 C-40.10921259 158.72521856 -42.11467123 158.07234067 -44.125 157.4375 C-51.12244148 154.35559437 -57.55160204 150.39835423 -64.0234375 146.3515625 C-67.2702853 144.34784031 -70.56972861 142.4903753 -73.91796875 140.6640625 C-85.12898406 134.43351594 -85.12898406 134.43351594 -87.125 132.4375 C-87.24685252 129.5928972 -87.30364115 126.77215716 -87.31787109 123.92626953 C-87.32604858 123.03361389 -87.33422607 122.14095825 -87.34265137 121.22125244 C-87.36755398 118.25427941 -87.38403257 115.28735432 -87.3984375 112.3203125 C-87.40376118 111.30997829 -87.40908485 110.29964409 -87.41456985 109.2586937 C-87.44132091 103.91254178 -87.46069069 98.5664134 -87.47509766 93.22021484 C-87.49176246 87.6858749 -87.5365501 82.15212852 -87.5874691 76.61801338 C-87.62105172 72.37331422 -87.63266517 68.12875755 -87.63832474 63.88393784 C-87.64506072 61.84329561 -87.66034318 59.80266351 -87.68421555 57.76214981 C-87.71568161 54.91010782 -87.71593213 52.05968805 -87.70849609 49.20751953 C-87.72490143 48.35960846 -87.74130676 47.51169739 -87.75820923 46.63809204 C-87.73300171 44.28421021 -87.73300171 44.28421021 -87.125 40.4375 C-83.91564895 37.56269284 -82.4830976 37.4375 -78.125 37.4375 C-78.125 36.7775 -78.125 36.1175 -78.125 35.4375 C-73.94646438 33.08211949 -69.75426975 30.75867975 -65.50390625 28.53515625 C-59.17181425 25.21742651 -53.03811895 21.87417178 -47.15234375 17.796875 C-44.38338385 15.94023137 -41.489923 14.36811354 -38.5625 12.77734375 C-35.7850159 11.25061771 -33.04863034 9.6621387 -30.3125 8.0625 C-29.30574219 7.4746875 -28.29898438 6.886875 -27.26171875 6.28125 C-25.11364558 5.01862168 -22.97063764 3.74734741 -20.83203125 2.46875 C-19.77371094 1.8396875 -18.71539062 1.210625 -17.625 0.5625 C-16.18640625 -0.29988281 -16.18640625 -0.29988281 -14.71875 -1.1796875 C-9.15830064 -4.14414394 -5.22708118 -3.84344205 0 0 Z M-15.125 8.4375 C-15.125 9.0975 -15.125 9.7575 -15.125 10.4375 C-16.6409375 10.80875 -16.6409375 10.80875 -18.1875 11.1875 C-22.25878354 12.33410638 -25.52744406 14.23491473 -29.125 16.4375 C-29.125 17.0975 -29.125 17.7575 -29.125 18.4375 C-29.70894531 18.56640625 -30.29289062 18.6953125 -30.89453125 18.828125 C-37.70678402 20.68926586 -44.01677633 24.98748478 -50.125 28.4375 C-50.125 29.0975 -50.125 29.7575 -50.125 30.4375 C-52.105 31.0975 -54.085 31.7575 -56.125 32.4375 C-67.51 38.8725 -67.51 38.8725 -79.125 45.4375 C-79.125 72.8275 -79.125 100.2175 -79.125 128.4375 C-72.31756959 132.5865712 -72.31756959 132.5865712 -69.125 132.4375 C-69.125 133.0975 -69.125 133.7575 -69.125 134.4375 C-68.61114746 134.71948242 -68.09729492 135.00146484 -67.56787109 135.29199219 C-65.21038473 136.58773418 -62.85518666 137.88758302 -60.5 139.1875 C-59.69175781 139.6309375 -58.88351563 140.074375 -58.05078125 140.53125 C-54.55007502 142.46659978 -51.09086393 144.40035787 -47.77734375 146.64453125 C-45.64337439 148.08708197 -43.63092243 149.27892665 -41.3125 150.375 C-37.50845512 152.21496029 -33.85628438 154.26446968 -30.203125 156.38671875 C-28.17463221 157.41240402 -26.34437926 157.98262722 -24.125 158.4375 C-24.125 159.0975 -24.125 159.7575 -24.125 160.4375 C-23.19816406 160.93121094 -22.27132812 161.42492187 -21.31640625 161.93359375 C-20.10672045 162.58063499 -18.89708778 163.22777554 -17.6875 163.875 C-17.07583984 164.20048828 -16.46417969 164.52597656 -15.83398438 164.86132812 C-11.23828125 167.32421875 -11.23828125 167.32421875 -10.125 168.4375 C-8.45882885 168.47813832 -6.79111905 168.480221 -5.125 168.4375 C-5.125 167.7775 -5.125 167.1175 -5.125 166.4375 C-4.3 166.19773437 -3.475 165.95796875 -2.625 165.7109375 C1.48670597 164.21493734 5.09179183 162.23855583 8.875 160.0625 C9.56078125 159.67578125 10.2465625 159.2890625 10.953125 158.890625 C15.0457001 156.56316817 18.96203008 154.05886285 22.875 151.4375 C24.48656458 150.51771635 26.11179101 149.62144344 27.75 148.75 C37.9140964 143.27275842 48.01707521 137.6684993 57.859375 131.62890625 C59.81345827 130.47387641 61.84472212 129.45263894 63.875 128.4375 C63.875 101.0475 63.875 73.6575 63.875 45.4375 C61.235 44.1175 58.595 42.7975 55.875 41.4375 C54.5742875 40.70329991 53.27914625 39.95865994 52 39.1875 C49.18110419 37.27463221 49.18110419 37.27463221 46.875 37.4375 C46.875 36.7775 46.875 36.1175 46.875 35.4375 C45.2720947 34.62251438 43.66762722 33.81060073 42.0625 33 C41.16917969 32.54753906 40.27585937 32.09507812 39.35546875 31.62890625 C36.83500522 30.3543395 36.83500522 30.3543395 33.875 29.4375 C33.42382812 28.98117188 32.97265625 28.52484375 32.5078125 28.0546875 C30.45816004 26.02464894 28.30025378 24.90665085 25.75 23.5625 C24.77289063 23.04171875 23.79578125 22.5209375 22.7890625 21.984375 C21.34660156 21.21867187 21.34660156 21.21867187 19.875 20.4375 C18.28916522 19.56704179 16.70560265 18.69242312 15.125 17.8125 C14.40699219 17.41417969 13.68898438 17.01585937 12.94921875 16.60546875 C10.93071102 15.46887023 8.93465138 14.2985838 6.9375 13.125 C4.16582894 11.27663175 4.16582894 11.27663175 1.875 11.4375 C1.875 10.7775 1.875 10.1175 1.875 9.4375 C0.60808493 8.76341692 -0.66370749 8.09849503 -1.9375 7.4375 C-2.64519531 7.06625 -3.35289062 6.695 -4.08203125 6.3125 C-8.48604987 4.4262664 -11.17101629 6.32870869 -15.125 8.4375 Z " fill="#5995DA" transform="translate(258.125,159.5625)"/>
<path d="M0 0 C0 4.62 0 9.24 0 14 C-1.65 14.7425 -3.3 15.485 -5 16.25 C-10.88098176 18.92248722 -16.6414324 21.77703902 -22.375 24.75 C-25 26 -25 26 -27 26 C-27 26.66 -27 27.32 -27 28 C-25.741875 28.37125 -24.48375 28.7425 -23.1875 29.125 C-18.32012112 30.73468435 -14.04926167 33.05337104 -9.59765625 35.5703125 C-6.46954475 37.2919498 -3.31227938 38.67508825 0 40 C0 44.62 0 49.24 0 54 C-4.62258233 53.07548353 -6.21846643 52.40643045 -10 50 C-11.41208351 49.20018707 -12.82927429 48.40935898 -14.25 47.625 C-15.03117187 47.19316406 -15.81234375 46.76132812 -16.6171875 46.31640625 C-17.40351563 45.88199219 -18.18984375 45.44757813 -19 45 C-20.45845941 44.18772634 -21.91679366 43.3752279 -23.375 42.5625 C-27.83338644 40.08124253 -32.32087747 37.65486048 -36.8125 35.234375 C-39 34 -39 34 -40 33 C-40.07258946 30.81360547 -40.08373783 28.62499611 -40.0625 26.4375 C-40.05347656 25.23996094 -40.04445312 24.04242188 -40.03515625 22.80859375 C-40.02355469 21.88175781 -40.01195312 20.95492187 -40 20 C-33.5 16 -33.5 16 -29 16 C-29 15.34 -29 14.68 -29 14 C-27.58957044 13.15615325 -26.17135868 12.32530504 -24.75 11.5 C-23.96109375 11.0359375 -23.1721875 10.571875 -22.359375 10.09375 C-20 9 -20 9 -16 9 C-16 8.34 -16 7.68 -16 7 C-15.48050781 6.74605469 -14.96101563 6.49210938 -14.42578125 6.23046875 C-11.26124911 4.66867562 -8.18680402 3.11623362 -5.1875 1.25 C-3 0 -3 0 0 0 Z " fill="#5793D9" transform="translate(235,220)"/>
<path d="M0 0 C2.475 0.495 2.475 0.495 5 1 C5 1.66 5 2.32 5 3 C6.25876953 3.37705078 6.25876953 3.37705078 7.54296875 3.76171875 C11.33694709 5.12069178 14.78953578 6.88194807 18.3125 8.8125 C18.97040527 9.16779785 19.62831055 9.5230957 20.30615234 9.88916016 C24.5884666 12.20765077 28.847391 14.56697555 33.0703125 16.9921875 C35.30233933 18.15790192 37.66200169 19.06480068 40 20 C40 24.62 40 29.24 40 34 C36.9371875 35.5159375 36.9371875 35.5159375 33.8125 37.0625 C25.05272652 41.42581587 16.38579021 45.94882771 8 51 C2.33333333 54 2.33333333 54 0 54 C0 49.38 0 44.76 0 40 C3.85742188 38.53515625 3.85742188 38.53515625 7.71484375 37.0703125 C10.14941056 36.2180914 10.14941056 36.2180914 11 34 C12.94881689 33.07868892 14.93490877 32.23520281 16.9375 31.4375 C21.01793316 29.82803181 21.01793316 29.82803181 25 28 C25 27.34 25 26.68 25 26 C22.23012967 24.68543451 19.45916513 23.3732713 16.6875 22.0625 C15.90181641 21.68931641 15.11613281 21.31613281 14.30664062 20.93164062 C13.54931641 20.57392578 12.79199219 20.21621094 12.01171875 19.84765625 C11.31522217 19.51773682 10.61872559 19.18781738 9.90112305 18.84790039 C7.84779265 17.89503306 7.84779265 17.89503306 5 17 C4.67 16.34 4.34 15.68 4 15 C2.68 14.34 1.36 13.68 0 13 C0 8.71 0 4.42 0 0 Z " fill="#5793D9" transform="translate(266,220)"/>
<path d="M0 0 C2.64 0 5.28 0 8 0 C7.41965584 8.28241975 6.44717089 16.42955906 5.125 24.625 C4.96386719 25.67945313 4.80273438 26.73390625 4.63671875 27.8203125 C3.70609319 33.649347 2.44748696 39.16528962 0.66015625 44.7890625 C-0.21679376 47.72606668 -0.67008795 50.65106892 -1.0625 53.6875 C-1.70836075 58.28387565 -2.68925523 62.54346777 -4 67 C-4.42188989 69.66406874 -4.71747032 72.31596804 -5 75 C-7.97 75 -10.94 75 -14 75 C-13.34 70.38 -12.68 65.76 -12 61 C-11.34 61 -10.68 61 -10 61 C-9.96261719 60.27039063 -9.92523438 59.54078125 -9.88671875 58.7890625 C-9.27405431 49.05850966 -7.7111992 39.58917289 -6 30 C-5.34 30 -4.68 30 -4 30 C-3.96261719 29.25878906 -3.92523438 28.51757812 -3.88671875 27.75390625 C-3.29943649 18.34587475 -1.76130824 9.24963761 0 0 Z " fill="#5995DA" transform="translate(253,209)"/>
</svg>
