<?xml version="1.0" encoding="UTF-8"?>
<svg version="1.1" xmlns="http://www.w3.org/2000/svg" width="48" height="48">
<path d="M0 0 C5.63026266 3.32996079 11.03753761 8.95936781 13.3828125 15.125 C14.1724022 22.80479879 14.92083604 31.12660045 9.9453125 37.515625 C4.42090281 43.20576698 -0.00571117 47.31092259 -8.25244141 47.55639648 C-15.517604 47.57736497 -21.17304635 47.41057393 -26.6171875 42.125 C-33.18823817 35.49475068 -35.06673698 30.5259648 -35.05102539 21.20166016 C-34.85279627 13.96835345 -32.85388085 10.3327943 -27.8671875 5.390625 C-20.13658627 -1.60690198 -10.0560852 -3.36203445 0 0 Z " fill="#0494FB" transform="translate(34.6171875,0.875)"/>
<path d="M0 0 C0.33 0 0.66 0 1 0 C1 1.98 1 3.96 1 6 C1.99 6 2.98 6 4 6 C4 4.02 4 2.04 4 0 C4.33 0 4.66 0 5 0 C5 1.98 5 3.96 5 6 C5.99 6 6.98 6 8 6 C8 4.02 8 2.04 8 0 C8.33 0 8.66 0 9 0 C9 1.98 9 3.96 9 6 C9.99 6 10.98 6 12 6 C12 5.34 12 4.68 12 4 C13.11375 4.185625 14.2275 4.37125 15.375 4.5625 C18.82568861 5.31680657 18.82568861 5.31680657 21 4 C21.63495214 9.07961715 20.32183349 11.94709635 17.5625 16.0390625 C14.21801367 20.23639285 10.06483331 24.0734455 5 26 C-2.67979879 26.7895897 -11.00160045 27.53802354 -17.390625 22.5625 C-26.84626039 13.38227147 -26.84626039 13.38227147 -27.125 7.25 C-27.063125 6.13625 -27.063125 6.13625 -27 5 C-24.36 5 -21.72 5 -19 5 C-19 5.99 -19 6.98 -19 8 C-18.34 8 -17.68 8 -17 8 C-17 7.01 -17 6.02 -17 5 C-14.69 4.34 -12.38 3.68 -10 3 C-9.34 3.66 -8.68 4.32 -8 5 C-5.34462628 5.56520003 -2.70855287 5.73788198 0 6 C0 4.02 0 2.04 0 0 Z " fill="#0293FB" transform="translate(27,22)"/>
<path d="M0 0 C2.875 -0.125 2.875 -0.125 6 0 C6.66 0.66 7.32 1.32 8 2 C8.66 1.34 9.32 0.68 10 0 C12.625 -0.125 12.625 -0.125 15 0 C14.67 0.99 14.34 1.98 14 3 C13.01 2.67 12.02 2.34 11 2 C11 3.32 11 4.64 11 6 C12.32 5.67 13.64 5.34 15 5 C14.67 5.99 14.34 6.98 14 8 C13.401875 7.835 12.80375 7.67 12.1875 7.5 C9.88655664 6.8885876 9.88655664 6.8885876 7 7 C5.33333333 7 3.66666667 7 2 7 C2 7.99 2 8.98 2 10 C1.34 10 0.68 10 0 10 C0 6.7 0 3.4 0 0 Z " fill="#ACDCFD" transform="translate(8,20)"/>
<path d="M0 0 C1.65 0.33 3.3 0.66 5 1 C5.9765625 7.0546875 5.9765625 7.0546875 6 9 C5.34 9.66 4.68 10.32 4 11 C1.375 10.625 1.375 10.625 -1 10 C-2.46726798 6.18510326 -1.43336419 3.70988378 0 0 Z " fill="#C8E8FE" transform="translate(42,17)"/>
<path d="M0 0 C6.15234375 -0.09765625 6.15234375 -0.09765625 8 0 C9 1 9 1 9.0625 4.5625 C9.041875 5.696875 9.02125 6.83125 9 8 C7.02 8 5.04 8 3 8 C3 6.02 3 4.04 3 2 C2.34 2 1.68 2 1 2 C1 3.65 1 5.3 1 7 C0.67 7 0.34 7 0 7 C0 4.69 0 2.38 0 0 Z " fill="#C3E5FE" transform="translate(25,20)"/>
<path d="M0 0 C1.67542976 0.28604898 3.34385343 0.61781233 5 1 C5 5 5 5 4 8 C2.68 8 1.36 8 0 8 C-0.38063221 5.6739143 -0.71269945 3.33944736 -1 1 C-0.67 0.67 -0.34 0.34 0 0 Z " fill="#C8E8FE" transform="translate(2,20)"/>
<path d="M0 0 C0.99 0.66 1.98 1.32 3 2 C3.1875 5.125 3.1875 5.125 3 8 C0.33333333 7.33333333 -2.33333333 6.66666667 -5 6 C-5 4.68 -5 3.36 -5 2 C-4.360625 1.855625 -3.72125 1.71125 -3.0625 1.5625 C-1.02454854 1.18992819 -1.02454854 1.18992819 0 0 Z " fill="#6BC1FC" transform="translate(24,20)"/>
<path d="M0 0 C2.625 -0.1875 2.625 -0.1875 5 0 C4.67 0.99 4.34 1.98 4 3 C3.01 2.67 2.02 2.34 1 2 C1 3.32 1 4.64 1 6 C2.32 5.67 3.64 5.34 5 5 C4.67 5.99 4.34 6.98 4 8 C2.125 7.75 2.125 7.75 0 7 C-1.25 4.9375 -1.25 4.9375 -2 3 C-1.34 2.01 -0.68 1.02 0 0 Z " fill="#CCEAFE" transform="translate(18,20)"/>
<path d="M0 0 C0.99 0 1.98 0 3 0 C3 3.3 3 6.6 3 10 C2.01 10 1.02 10 0 10 C0 6.7 0 3.4 0 0 Z " fill="#A7DAFD" transform="translate(36,18)"/>
<path d="M0 0 C1.9375 0.3125 1.9375 0.3125 4 1 C4.33 1.99 4.66 2.98 5 4 C3.35 4.33 1.7 4.66 0 5 C0 3.35 0 1.7 0 0 Z " fill="#74C4FC" transform="translate(42,23)"/>
<path d="M0 0 C1.65 0 3.3 0 5 0 C5 0.99 5 1.98 5 3 C3.35 3.33 1.7 3.66 0 4 C0 2.68 0 1.36 0 0 Z " fill="#1D9FFB" transform="translate(19,22)"/>
</svg>
