<svg version="1.0" xmlns="http://www.w3.org/2000/svg"
 width="300" height="300" viewBox="0 0 3520.000000 800.000000"
 preserveAspectRatio="xMidYMid meet">
<g transform="translate(0.000000,800.000000) scale(0.100000,-0.100000)"
fill="#000000" stroke="none">
<path d="M3644 6150 c-92 -12 -141 -27 -229 -70 -186 -90 -322 -259 -375 -466
-19 -74 -20 -114 -20 -883 l0 -807 -31 -18 c-18 -11 -77 -53 -132 -94 -233
-176 -428 -414 -573 -703 -50 -100 -114 -259 -114 -283 0 -20 28 -46 50 -46
10 0 67 39 127 86 484 385 1108 687 1752 848 416 105 756 150 1224 163 221 6
239 8 248 26 6 10 8 29 5 42 -5 20 -23 30 -117 60 -254 82 -596 158 -864 191
-150 19 -548 25 -683 11 l-73 -7 3 473 3 472 33 67 c39 80 111 148 192 181
l55 22 875 5 c823 5 877 6 902 23 54 37 58 61 58 344 0 290 -4 309 -70 348
-35 20 -48 20 -1110 21 -591 1 -1103 -2 -1136 -6z"/>
<path d="M14977 6146 c-48 -18 -62 -29 -81 -70 -14 -30 -16 -117 -16 -767 l0
-732 -52 74 c-158 227 -396 380 -674 436 -120 23 -365 23 -486 0 -424 -84
-777 -368 -977 -787 -203 -425 -235 -967 -84 -1435 215 -668 777 -1071 1415
-1015 214 18 394 81 552 190 84 58 215 189 270 271 l36 54 0 -169 c0 -189 8
-221 65 -256 31 -19 49 -20 325 -20 276 0 294 1 325 20 70 43 65 -131 65 2100
0 2216 5 2044 -62 2092 -32 23 -38 23 -308 25 -213 2 -284 0 -313 -11z m-615
-1776 c119 -40 228 -109 300 -191 146 -165 215 -362 225 -639 9 -248 -21 -408
-109 -590 -44 -91 -62 -116 -142 -196 -75 -75 -107 -99 -176 -132 -123 -59
-200 -76 -355 -76 -154 0 -233 17 -350 74 -226 110 -372 325 -426 630 -21 117
-17 384 8 500 67 311 240 528 491 616 103 36 163 43 307 40 115 -3 141 -7 227
-36z"/>
<path d="M20745 6145 c-46 -16 -83 -57 -90 -100 -3 -16 -5 -822 -3 -1790 l3
-1760 27 -80 c81 -238 269 -415 506 -476 72 -18 120 -19 1119 -19 1153 0 1083
-4 1123 63 18 30 20 52 20 302 0 250 -2 272 -20 302 -44 72 17 67 -885 73
l-810 5 -63 34 c-74 40 -124 93 -161 171 l-26 55 -5 1570 c-5 1521 -6 1571
-24 1598 -40 60 -53 62 -376 64 -237 2 -303 0 -335 -12z"/>
<path d="M27103 6141 c-24 -11 -51 -34 -63 -53 -20 -33 -20 -45 -20 -2046 0
-2233 -5 -2059 65 -2102 31 -19 49 -20 326 -20 269 0 296 2 322 19 58 38 62
51 67 240 l5 174 51 -69 c65 -87 180 -197 263 -253 341 -231 845 -249 1245
-45 246 125 474 361 608 628 188 374 243 836 153 1281 -124 616 -544 1075
-1080 1184 -336 68 -655 15 -903 -149 -117 -77 -194 -150 -272 -255 l-65 -88
-5 739 c-5 705 -6 740 -24 767 -40 59 -55 62 -356 65 -255 2 -278 1 -317 -17z
m1692 -1756 c283 -78 476 -302 548 -635 25 -116 29 -383 8 -500 -65 -362 -256
-596 -558 -682 -112 -32 -314 -32 -427 0 -131 38 -230 95 -321 187 -91 92
-134 159 -181 283 -47 126 -64 219 -71 379 -11 280 44 509 166 687 48 69 171
178 246 218 62 32 163 66 245 82 53 10 286 -3 345 -19z"/>
<path d="M7185 5099 c-358 -37 -671 -185 -921 -434 -238 -238 -384 -538 -440
-905 -21 -141 -21 -420 1 -564 94 -621 467 -1084 1026 -1270 323 -108 737
-107 1070 4 374 124 642 355 816 705 64 127 86 198 80 251 -8 78 -31 92 -299
189 -131 47 -252 85 -271 85 -41 0 -95 -28 -112 -60 -8 -14 -30 -59 -49 -101
-104 -225 -270 -372 -485 -431 -60 -17 -105 -21 -221 -21 -130 -1 -153 2 -225
26 -341 113 -545 452 -545 907 0 603 363 992 869 931 290 -36 461 -165 611
-465 93 -185 100 -186 404 -77 265 94 281 102 306 144 38 62 22 135 -72 322
-133 265 -372 501 -630 620 -269 124 -602 176 -913 144z"/>
<path d="M10455 5099 c-710 -75 -1235 -547 -1381 -1243 -32 -153 -43 -426 -24
-598 60 -551 367 -1007 835 -1241 524 -262 1210 -222 1688 97 219 146 378 325
501 565 223 437 245 1014 56 1478 -134 327 -382 601 -691 762 -288 150 -645
215 -984 180z m348 -703 c387 -74 626 -385 653 -851 35 -585 -302 -1005 -806
-1007 -144 0 -237 20 -355 77 -159 77 -262 181 -346 350 -27 55 -61 145 -76
200 -25 93 -27 115 -27 310 -1 186 2 220 22 299 85 335 297 555 598 619 89 20
242 21 337 3z"/>
<path d="M17414 5100 c-580 -66 -1023 -405 -1229 -940 -76 -195 -106 -361
-112 -622 -9 -348 36 -587 158 -847 201 -426 571 -716 1039 -811 350 -71 738
-32 1038 106 270 124 523 377 661 663 47 98 53 154 21 206 -25 40 -35 45 -280
136 -274 101 -311 98 -380 -33 -114 -218 -285 -362 -497 -420 -105 -28 -336
-31 -433 -5 -205 55 -368 199 -453 400 -33 79 -71 224 -82 310 l-6 57 1100 0
1101 0 0 174 c0 201 -17 354 -59 519 -148 587 -570 993 -1131 1091 -111 20
-354 28 -456 16z m360 -645 c114 -30 185 -72 271 -159 107 -108 174 -239 219
-428 l6 -28 -690 0 c-677 0 -690 0 -690 19 0 34 51 183 88 256 103 207 263
319 507 359 54 8 229 -3 289 -19z"/>
<path d="M24953 5100 c-518 -55 -891 -296 -1098 -710 -43 -86 -50 -147 -21
-196 25 -41 39 -49 276 -149 274 -115 304 -113 383 20 107 178 264 289 467
331 101 20 300 15 395 -11 159 -44 280 -135 340 -259 57 -117 66 -168 72 -399
l6 -208 -79 57 c-97 69 -169 106 -282 144 -350 117 -864 80 -1197 -87 -229
-115 -401 -303 -469 -513 -41 -124 -49 -187 -44 -347 5 -122 10 -164 32 -238
102 -340 382 -571 794 -655 150 -30 351 -42 505 -30 316 26 542 116 714 285
l73 72 0 -85 c0 -102 22 -159 73 -186 28 -15 62 -17 304 -14 l272 3 31 30 c17
16 35 45 41 65 7 23 9 362 7 1040 -4 995 -4 1006 -26 1103 -116 511 -480 827
-1062 922 -115 19 -394 27 -507 15z m462 -1889 c241 -64 365 -195 365 -386 0
-231 -182 -372 -524 -406 -189 -19 -381 9 -522 75 -118 56 -187 130 -218 236
-63 213 82 411 349 479 114 29 122 29 305 26 130 -2 182 -7 245 -24z"/>
<path d="M31438 5100 c-597 -63 -979 -362 -1039 -815 -41 -312 78 -605 320
-784 193 -143 393 -221 831 -326 583 -139 721 -215 723 -394 1 -128 -103 -228
-288 -276 -82 -21 -262 -37 -343 -29 -331 29 -541 164 -675 433 -46 93 -55
106 -92 122 -22 10 -48 19 -58 19 -11 0 -112 -30 -225 -67 -230 -74 -264 -95
-278 -168 -13 -69 56 -238 161 -394 184 -274 498 -470 865 -542 259 -50 595
-43 835 17 256 64 447 164 596 313 177 178 259 397 246 656 -18 333 -196 575
-551 745 -142 68 -234 97 -626 199 -190 50 -362 95 -382 101 -75 22 -181 71
-228 105 -55 40 -100 118 -100 172 0 110 110 212 281 259 49 14 101 18 229 19
143 0 176 -3 245 -23 203 -59 356 -193 416 -366 19 -53 57 -92 104 -105 36
-10 63 -5 255 45 259 67 278 77 300 156 14 50 -7 132 -65 254 -60 128 -114
205 -214 304 -182 181 -427 300 -717 350 -138 24 -395 33 -526 20z"/>
<path d="M3760 3396 c-223 -98 -455 -231 -627 -361 l-108 -81 -3 -468 c-2
-516 -3 -507 61 -546 30 -19 52 -20 346 -20 297 0 315 1 346 20 68 42 65 12
63 789 l-3 700 -75 -33z"/>
</g>
</svg>
