<svg version="1.0" xmlns="http://www.w3.org/2000/svg"
 width="500" height="500" viewBox="0 0 7520.000000 700.000000"
 preserveAspectRatio="xMidYMid meet">
<g transform="translate(0.000000,800.000000) scale(1.50000,-1.500000)"
fill="#000000" stroke="none">
<path d="M0 700 l0 -700 3200 0 3200 0 0 700 0 700 -3200 0 -3200 0 0 -700z
m3794 234 c9 -3 16 -11 16 -16 0 -6 -6 -6 -14 1 -11 9 -20 10 -35 1 -29 -15
-26 -30 5 -30 14 0 23 4 20 8 -9 16 63 12 79 -4 22 -23 19 -37 -6 -23 -16 8
-28 8 -46 0 -74 -34 -142 22 -70 57 27 13 31 14 51 6z m886 -34 c0 -11 7 -20
15 -20 8 0 15 -4 15 -10 0 -5 -7 -10 -15 -10 -11 0 -15 -11 -15 -35 0 -22 6
-38 15 -41 21 -9 19 -24 -4 -24 -26 0 -38 51 -32 138 1 27 21 30 21 2z m-885
-57 c26 4 55 2 66 -3 20 -11 26 -45 9 -55 -5 -3 -10 1 -10 9 0 20 -31 29 -73
21 -27 -5 -39 -2 -65 20 -40 34 -42 53 -3 24 25 -18 38 -21 76 -16z m131 2 c8
-45 20 -45 28 1 9 45 27 40 42 -12 l11 -39 8 38 c7 34 21 55 30 45 8 -8 -29
-118 -39 -115 -6 2 -16 21 -21 42 l-11 37 -12 -41 c-7 -22 -17 -41 -22 -41 -5
0 -16 23 -25 52 -18 60 -18 68 -5 68 5 0 12 -16 16 -35z m222 -13 c4 -52 -10
-72 -49 -72 -56 0 -56 64 0 72 34 4 40 28 7 28 -14 0 -26 5 -26 11 0 6 14 9
33 7 30 -3 32 -6 35 -46z m55 6 l14 -43 13 43 c7 23 19 42 26 42 10 0 8 -15
-8 -60 -12 -33 -26 -60 -31 -60 -9 0 -31 49 -42 93 -11 44 12 31 28 -15z m169
25 c10 -9 18 -24 18 -35 0 -15 -8 -18 -45 -18 -36 0 -43 -3 -38 -16 4 -12 14
-14 35 -10 21 4 28 2 26 -7 -7 -19 -53 -20 -72 -2 -18 19 -21 57 -6 86 13 24
57 25 82 2z m128 -2 c13 -25 13 -101 0 -101 -5 0 -10 17 -10 39 0 41 -20 67
-45 57 -10 -4 -15 -19 -15 -51 0 -33 -4 -45 -15 -45 -12 0 -15 13 -15 60 l0
60 45 0 c34 0 47 -5 55 -19z m124 -3 c27 -38 20 -48 -30 -48 -32 0 -44 -4 -41
-12 2 -7 18 -12 36 -12 38 2 41 -13 4 -22 -32 -8 -55 5 -67 39 -22 60 62 107
98 55z m-1204 -39 c0 -49 -1 -50 -27 -47 -24 3 -28 8 -28 33 0 23 5 31 23 33
12 2 22 10 22 18 0 8 2 14 5 14 3 0 5 -23 5 -51z m83 19 c17 -2 22 -10 22 -33
0 -26 -4 -30 -27 -31 -27 -1 -28 1 -27 50 1 28 3 43 6 34 2 -9 14 -18 26 -20z
m-525 -31 c3 -22 -1 -30 -17 -34 -12 -3 -21 -12 -21 -19 0 -8 -4 -14 -10 -14
-5 0 -10 23 -10 51 0 49 1 50 28 47 21 -2 28 -9 30 -31z m77 13 c7 -23 -10
-50 -31 -50 -21 0 -38 38 -23 56 17 21 47 17 54 -6z m43 -2 c5 29 24 24 33 -9
7 -23 7 -23 8 -2 1 12 6 25 11 28 10 6 4 -37 -7 -58 -8 -13 -23 3 -24 26 -1
20 -2 19 -12 -5 -13 -34 -23 -35 -31 -5 -10 36 -6 54 6 27 l11 -25 5 23z m125
8 c7 -18 -1 -26 -25 -26 -11 0 -16 -5 -13 -11 4 -6 13 -8 21 -5 8 3 14 1 14
-5 0 -6 -10 -9 -22 -7 -38 5 -37 68 1 68 10 0 21 -6 24 -14z m44 1 c-9 -7 -18
-23 -20 -37 -3 -19 -5 -17 -6 10 -1 30 3 36 20 37 19 2 19 0 6 -10z m81 -9 c2
-12 -5 -18 -25 -20 l-28 -4 25 -12 c17 -8 19 -11 6 -9 -24 3 -41 29 -33 51 9
22 51 17 55 -6z m235 3 c3 13 9 21 12 18 6 -7 -14 -68 -28 -86 -5 -7 -15 -13
-21 -13 -6 0 -5 4 3 9 13 9 12 32 -4 76 -6 17 -4 16 13 -4 l19 -24 6 24z m200
-21 c50 0 72 -19 48 -43 -8 -8 -11 -8 -11 1 0 7 -14 12 -33 12 -18 0 -43 7
-55 16 -12 8 -22 11 -22 6 0 -12 46 -32 75 -32 14 0 25 -4 25 -10 0 -19 -59
-10 -85 13 -14 12 -28 35 -31 52 l-5 30 24 -23 c17 -16 35 -22 70 -22z m-1793
-35 c14 -19 14 -19 -2 -6 -10 7 -18 18 -18 24 0 6 1 8 3 6 1 -2 9 -13 17 -24z
m-163 -1 c-3 -3 -12 -4 -19 -1 -8 3 -5 6 6 6 11 1 17 -2 13 -5z m230 -26 c-3
-7 -5 -2 -5 12 0 14 2 19 5 13 2 -7 2 -19 0 -25z m-352 16 c13 -5 14 -8 3 -15
-19 -13 -28 -11 -28 6 0 17 2 18 25 9z m68 -1 c-7 -2 -21 -2 -30 0 -10 3 -4 5
12 5 17 0 24 -2 18 -5z m154 -15 c-3 -8 -6 -5 -6 6 -1 11 2 17 5 13 3 -3 4
-12 1 -19z m210 -38 c29 -31 31 -39 23 -65 l-10 -30 4 31 c5 29 -13 52 -63 83
-7 5 -10 14 -6 21 4 6 10 8 14 3 3 -4 21 -24 38 -43z m-327 30 c0 -5 -12 -10
-27 -9 l-28 1 25 8 c14 4 26 8 28 9 1 1 2 -3 2 -9z m-150 -8 c0 -5 -13 -18
-30 -30 -16 -13 -30 -28 -30 -34 0 -6 16 -31 36 -55 l37 -45 -22 -26 c-12 -15
-26 -37 -31 -49 -5 -13 -14 -23 -20 -23 -18 0 -11 22 15 42 49 39 50 54 6 106
l-40 47 24 25 c14 15 25 31 25 38 0 7 7 12 15 12 8 0 15 -4 15 -8z m65 -9
c-26 -6 -75 -53 -75 -71 0 -16 -22 -11 -28 6 -2 7 3 12 10 12 8 0 27 14 43 30
16 17 38 29 49 29 20 -1 20 -1 1 -6z m345 -8 c0 -8 -7 -15 -15 -15 -13 0 -14
3 -3 15 16 18 18 18 18 0z m-248 -12 c-6 -2 -10 -9 -7 -14 4 -5 -1 -6 -10 -2
-13 5 -14 7 -3 14 7 5 18 8 23 8 6 0 4 -3 -3 -6z m291 -35 c-6 -7 -16 -30 -23
-51 -6 -21 -14 -36 -16 -34 -2 2 2 22 10 45 8 22 12 43 9 45 -3 3 -2 11 2 17
5 8 10 9 18 1 7 -7 7 -14 0 -23z m-340 15 c-7 -2 -19 -2 -25 0 -7 3 -2 5 12 5
14 0 19 -2 13 -5z m-67 -24 c-14 -11 -26 -27 -26 -35 0 -15 -12 -19 -23 -7 -7
7 52 62 67 63 5 0 -3 -9 -18 -21z m369 0 c-4 -5 -16 -9 -28 -9 -20 0 -20 0 -2
14 21 15 40 12 30 -5z m312 -14 c1 -15 0 -15 -3 -3 -3 9 -13 19 -22 22 -12 3
-12 4 3 3 12 -1 21 -10 22 -22z m136 18 c-13 -2 -33 -2 -45 0 -13 2 -3 4 22 4
25 0 35 -2 23 -4z m304 -18 c1 -16 1 -16 -3 -2 -4 14 -17 17 -64 17 l-59 0 -4
-112 -3 -113 -2 118 -2 118 67 -3 c59 -3 68 -6 70 -23z m173 6 c5 -11 10 -26
9 -33 0 -7 -5 0 -11 15 -16 43 -40 30 -63 -35 -11 -31 -24 -60 -28 -64 -6 -6
17 68 38 119 10 23 42 22 55 -2z m160 9 c0 -5 -7 -7 -15 -4 -13 5 -15 -8 -15
-84 l0 -91 53 -4 52 -3 -57 -2 -58 -2 0 100 c0 93 1 100 20 100 11 0 20 -4 20
-10z m180 -10 c0 -11 -7 -20 -15 -20 -11 0 -15 -20 -18 -97 l-3 -98 -2 103
c-2 85 1 102 13 102 21 0 19 18 -2 23 -14 4 -12 5 5 6 16 1 22 -5 22 -19z
m153 13 c-93 -5 -95 -23 -3 -23 39 0 70 -3 70 -7 -1 -5 -23 -39 -50 -78 l-50
-70 55 -3 c50 -3 55 -5 54 -25 -1 -17 -2 -18 -6 -4 -4 14 -16 17 -64 17 l-60
0 51 75 c27 41 50 77 50 80 0 3 -29 5 -65 5 -58 0 -65 2 -65 20 0 18 6 20 78
18 l77 -2 -72 -3z m266 -15 c-1 -18 -2 -19 -6 -5 -4 15 -14 17 -61 15 l-57 -3
-3 -102 c-2 -90 -1 -102 15 -106 14 -4 13 -5 -4 -6 -23 -1 -23 1 -23 114 l0
115 70 0 c66 0 70 -1 69 -22z m296 -3 c40 -39 33 -69 -32 -136 l-56 -59 51 0
c55 0 71 16 25 23 -26 4 -26 4 5 6 26 1 32 -3 32 -19 0 -18 -7 -20 -66 -20
l-66 0 56 60 c31 34 59 72 62 85 12 47 -30 84 -82 71 -34 -9 -30 -27 4 -20 35
7 63 -16 55 -46 -7 -25 -93 -123 -101 -115 -3 3 15 27 40 53 25 26 48 55 51
64 8 24 -15 39 -50 32 -38 -7 -55 13 -28 33 29 21 73 16 100 -12z m226 -5 c24
-23 30 -37 27 -62 -2 -20 -8 -32 -15 -30 -7 1 -13 -6 -13 -17 0 -24 -37 -71
-56 -71 -31 0 -54 38 -54 92 0 58 19 88 56 88 22 0 63 -44 52 -56 -3 -2 -13 7
-22 21 -33 50 -76 20 -76 -54 0 -58 26 -89 58 -72 21 11 32 32 32 62 0 10 7
19 15 19 24 0 18 44 -10 74 -68 74 -159 -20 -123 -129 26 -78 109 -82 143 -7
14 34 15 34 10 7 -9 -43 -38 -69 -79 -69 -63 0 -104 66 -91 144 15 86 89 117
146 60z m199 10 c39 -39 24 -84 -54 -167 l-30 -33 53 0 c35 0 50 4 45 11 -3 6
-17 9 -30 6 -13 -2 -21 0 -18 4 9 15 54 10 61 -6 3 -9 3 -18 1 -20 -6 -6 -138
-11 -138 -6 0 2 27 33 61 67 52 55 60 68 57 96 -4 40 -41 64 -81 54 -39 -9
-33 -26 6 -19 39 6 62 -15 54 -49 -4 -13 -30 -45 -59 -73 -50 -47 -38 -28 25
41 21 23 27 38 22 53 -7 22 -34 28 -50 12 -6 -6 -17 -5 -28 4 -17 12 -17 14 5
29 31 22 74 20 98 -4z m220 -1 c0 -11 -12 -36 -26 -55 -26 -33 -26 -35 -9 -54
39 -44 -13 -98 -70 -72 -15 7 -26 8 -30 2 -6 -10 35 -30 61 -30 19 0 57 19 66
34 12 17 9 61 -4 74 -8 8 -8 12 -1 12 16 0 31 -52 22 -76 -10 -27 -47 -54 -75
-54 -26 0 -84 20 -84 28 1 24 18 31 49 22 61 -17 97 29 44 55 -21 11 -21 11
13 54 47 60 45 68 -21 69 -30 0 -55 -4 -55 -9 0 -5 18 -9 40 -9 22 0 40 -3 40
-7 -1 -13 -59 -79 -60 -67 0 6 7 17 15 24 27 22 18 42 -17 38 -28 -2 -34 1
-36 20 -3 21 0 22 67 22 65 0 71 -2 71 -21z m-2102 -5 c12 -8 22 -21 22 -27
-1 -7 -5 -6 -13 4 -7 8 -21 21 -32 27 -11 6 -15 12 -10 12 6 0 21 -7 33 -16z
m-398 -20 c0 -8 11 -36 24 -62 21 -43 22 -50 10 -79 -8 -18 -19 -33 -24 -33
-16 0 -12 18 10 40 l20 20 -26 53 c-15 28 -31 55 -37 58 -5 4 -6 12 -3 18 9
14 26 5 26 -15z m-615 7 c3 -5 1 -12 -5 -16 -16 -10 -11 -57 7 -71 10 -7 15
-16 10 -20 -14 -14 -36 31 -37 74 0 39 11 54 25 33z m241 -23 l29 -33 -32 29
c-31 28 -38 36 -30 36 2 0 16 -15 33 -32z m972 25 c-10 -2 -28 -2 -40 0 -13 2
-5 4 17 4 22 1 32 -1 23 -4z m942 3 c0 -2 -18 -6 -40 -8 -22 -2 -40 0 -40 4 0
5 18 8 40 8 22 0 40 -2 40 -4z m-1989 -29 c-13 -13 -26 -3 -16 12 3 6 11 8 17
5 6 -4 6 -10 -1 -17z m833 1 c9 -12 15 -38 15 -58 -1 -34 -2 -33 -9 9 -4 25
-15 50 -25 57 -10 8 -14 14 -7 14 6 0 18 -10 26 -22z m143 0 c-3 -8 -6 -5 -6
6 -1 11 2 17 5 13 3 -3 4 -12 1 -19z m-693 3 c3 -5 -1 -14 -9 -21 -10 -9 -15
-9 -15 -1 0 6 6 11 13 11 8 0 7 4 -3 10 -9 6 -10 10 -3 10 6 0 14 -4 17 -9z
m962 -58 c-3 -3 -8 6 -12 21 -3 14 -10 23 -15 20 -11 -6 -12 10 -2 20 5 4 14
-7 21 -24 7 -18 11 -35 8 -37z m-1288 46 c-2 -3 3 -13 10 -22 12 -14 10 -21
-10 -49 -12 -18 -22 -40 -20 -48 2 -12 1 -12 -6 -2 -7 11 -10 9 -15 -7 -3 -12
-10 -21 -16 -21 -16 0 -13 27 3 33 8 3 27 22 42 42 27 36 27 38 9 51 -14 10
-15 14 -4 14 12 0 12 2 -1 11 -10 7 -11 9 -2 7 8 -2 12 -6 10 -9z m203 -6 c13
-16 12 -17 -3 -4 -17 13 -22 21 -14 21 2 0 10 -8 17 -17z m239 -17 c-14 -14
-22 -2 -14 18 5 14 9 15 15 4 4 -7 4 -17 -1 -22z m317 -73 c-2 -21 -4 -4 -4
37 0 41 2 58 4 38 2 -21 2 -55 0 -75z m160 75 c-3 -8 -6 -5 -6 6 -1 11 2 17 5
13 3 -3 4 -12 1 -19z m403 -13 c0 -5 -5 -3 -10 5 -5 8 -10 20 -10 25 0 6 5 3
10 -5 5 -8 10 -19 10 -25z m307 -87 c-2 -24 -4 -5 -4 42 0 47 2 66 4 43 2 -24
2 -62 0 -85z m132 77 c-18 -25 -34 -45 -36 -45 -6 0 6 19 35 58 37 49 38 38 1
-13z m-1082 -47 c-2 -18 -4 -6 -4 27 0 33 2 48 4 33 2 -15 2 -42 0 -60z m115
10 c2 -27 0 -48 -4 -48 -5 0 -7 28 -7 63 1 67 6 60 11 -15z m-722 50 c0 -7 15
-28 33 -47 31 -34 31 -33 -14 5 -26 21 -45 42 -42 47 7 11 23 8 23 -5z m998 5
l-48 -4 0 -44 0 -44 47 -3 c34 -2 48 -7 49 -18 0 -9 -1 -10 -3 -2 -3 7 -23 12
-54 12 l-49 0 0 55 0 55 53 -2 52 -2 -47 -3z m982 -13 c0 -17 -6 -20 -37 -18
-37 1 -37 1 -5 5 50 7 39 26 -13 21 -25 -2 -45 0 -45 4 0 5 23 8 50 8 43 0 50
-3 50 -20z m-1605 -21 c49 -15 49 -15 40 -29 -5 -8 -11 -7 -22 2 -8 7 -32 20
-52 30 -37 18 -35 18 34 -3z m658 4 c-7 -2 -21 -2 -30 0 -10 3 -4 5 12 5 17 0
24 -2 18 -5z m-186 -25 c-3 -8 -6 -5 -6 6 -1 11 2 17 5 13 3 -3 4 -12 1 -19z
m-537 2 c8 -5 11 -10 5 -10 -5 0 -17 5 -25 10 -8 5 -10 10 -5 10 6 0 17 -5 25
-10z m-300 -54 l35 -40 -46 40 c-26 21 -45 43 -42 47 3 5 8 5 12 0 3 -4 22
-26 41 -47z m1279 -16 c0 -8 -7 1 -14 20 -18 46 -17 64 0 25 8 -16 14 -37 14
-45z m598 48 c-3 -8 -6 -5 -6 6 -1 11 2 17 5 13 3 -3 4 -12 1 -19z m-1637 0
c0 -4 -9 -8 -21 -8 -11 0 -18 4 -15 8 3 5 12 9 21 9 8 0 15 -4 15 -9z m120 3
c0 -18 -18 -21 -30 -6 -10 13 -9 15 9 15 11 0 21 -4 21 -9z m434 -6 c-7 -16
-51 -32 -61 -21 -4 3 3 6 14 6 11 0 26 7 33 15 16 19 21 19 14 0z m304 -26
c-6 -16 -12 -28 -14 -26 -5 5 13 57 20 57 3 0 0 -14 -6 -31z m-1138 -34 l45
-50 -47 45 c-27 24 -48 48 -48 54 0 5 1 7 3 5 1 -2 22 -27 47 -54z m343 38
c-7 -2 -19 -2 -25 0 -7 3 -2 5 12 5 14 0 19 -2 13 -5z m517 3 c0 -2 -8 -10
-17 -17 -16 -13 -17 -12 -4 4 13 16 21 21 21 13z m430 -31 c0 -5 -5 -3 -10 5
-5 8 -10 20 -10 25 0 6 5 3 10 -5 5 -8 10 -19 10 -25z m210 15 c0 -11 -4 -20
-9 -20 -5 0 -7 9 -4 20 3 11 7 20 9 20 2 0 4 -9 4 -20z m514 11 c3 -5 -16 -6
-42 -4 -69 7 -74 11 -15 12 28 1 54 -3 57 -8z m-357 -23 c-3 -8 -6 -5 -6 6 -1
11 2 17 5 13 3 -3 4 -12 1 -19z m-1217 3 c0 -18 -18 -21 -30 -6 -10 13 -9 15
9 15 11 0 21 -4 21 -9z m377 -7 c-3 -3 -12 -4 -19 -1 -8 3 -5 6 6 6 11 1 17
-2 13 -5z m980 0 c-3 -3 -12 -4 -19 -1 -8 3 -5 6 6 6 11 1 17 -2 13 -5z m176
-1 c-7 -2 -19 -2 -25 0 -7 3 -2 5 12 5 14 0 19 -2 13 -5z m-1623 -28 c7 -8 16
-12 21 -10 4 3 12 -2 17 -11 8 -15 11 -14 25 7 13 18 20 20 29 11 9 -9 7 -13
-8 -18 -10 -4 -30 -16 -44 -28 -16 -14 -20 -15 -11 -3 11 14 11 17 0 17 -8 0
-20 9 -26 19 -7 11 -23 21 -35 24 -22 4 -22 4 -2 6 12 0 27 -6 34 -14z m-63
-1 c-3 -3 -12 -4 -19 -1 -8 3 -5 6 6 6 11 1 17 -2 13 -5z m61 -35 c-2 -6 -7
-10 -11 -10 -4 1 -17 1 -29 2 -22 0 -22 1 -3 9 28 12 47 12 43 -1z m-94 -20
c-3 -5 -10 -7 -15 -3 -5 3 -7 10 -3 15 3 5 10 7 15 3 5 -3 7 -10 3 -15z m42
-136 c0 -7 0 -12 -1 -10 0 1 -32 36 -70 77 l-70 75 70 -65 c39 -36 71 -71 71
-77z m54 112 c-7 -9 -27 -14 -49 -13 l-36 1 35 4 c19 3 39 9 45 14 15 15 19
10 5 -6z m-59 -48 c-13 -13 -26 -3 -16 12 3 6 11 8 17 5 6 -4 6 -10 -1 -17z
m40 -32 c1 -17 -18 -17 -25 0 -4 11 -1 15 10 13 8 -2 15 -7 15 -13z"/>
<path d="M4098 813 c-10 -2 -18 -11 -18 -19 0 -22 44 -14 48 9 4 17 1 18 -30
10z"/>
<path d="M4307 853 c-15 -15 -5 -23 29 -23 31 0 35 2 24 15 -13 16 -42 20 -53
8z"/>
<path d="M4557 854 c-15 -15 -6 -24 24 -24 20 0 29 4 27 13 -5 14 -40 21 -51
11z"/>
<path d="M3373 814 c-8 -21 13 -42 28 -27 13 13 5 43 -11 43 -6 0 -13 -7 -17
-16z"/>
<path d="M3486 821 c-9 -14 5 -42 18 -38 18 6 20 47 2 47 -8 0 -17 -4 -20 -9z"/>
<path d="M2940 804 c0 -31 23 -28 28 4 2 15 -2 22 -12 22 -11 0 -16 -9 -16
-26z"/>
<path d="M3010 805 c0 -26 24 -35 32 -12 7 18 -2 37 -18 37 -8 0 -14 -10 -14
-25z"/>
<path d="M3180 820 c0 -5 7 -10 15 -10 8 0 15 5 15 10 0 6 -7 10 -15 10 -8 0
-15 -4 -15 -10z"/>
<path d="M3305 820 c-3 -5 1 -10 9 -10 9 0 16 5 16 10 0 6 -4 10 -9 10 -6 0
-13 -4 -16 -10z"/>
</g>
</svg>
